<svg xmlns="http://www.w3.org/2000/svg" xmlns:xlink="http://www.w3.org/1999/xlink" width="550" zoomAndPan="magnify" viewBox="0 0 412.5 412.499996" height="550" preserveAspectRatio="xMidYMid meet" version="1.0"><defs><clipPath id="f2f48afd66"><path d="M 22 18 L 389.261719 18 L 389.261719 393 L 22 393 Z M 22 18 " clip-rule="nonzero"/></clipPath><clipPath id="177a33d9fb"><path d="M 42.214844 18.816406 L 369.785156 18.816406 C 374.949219 18.816406 379.902344 20.871094 383.554688 24.523438 C 387.207031 28.175781 389.261719 33.128906 389.261719 38.292969 L 389.261719 373.707031 C 389.261719 378.871094 387.207031 383.824219 383.554688 387.476562 C 379.902344 391.132812 374.949219 393.183594 369.785156 393.183594 L 42.214844 393.183594 C 37.050781 393.183594 32.097656 391.132812 28.445312 387.476562 C 24.792969 383.824219 22.742188 378.871094 22.742188 373.707031 L 22.742188 38.292969 C 22.742188 33.128906 24.792969 28.175781 28.445312 24.523438 C 32.097656 20.871094 37.050781 18.816406 42.214844 18.816406 Z M 42.214844 18.816406 " clip-rule="nonzero"/></clipPath><clipPath id="b035b025f8"><path d="M 57 76 L 355 76 L 355 356.867188 L 57 356.867188 Z M 57 76 " clip-rule="nonzero"/></clipPath><clipPath id="53f717ff39"><path d="M 182.613281 214.3125 L 229.386719 214.3125 L 229.386719 244.269531 L 182.613281 244.269531 Z M 182.613281 214.3125 " clip-rule="nonzero"/></clipPath></defs><g clip-path="url(#f2f48afd66)"><g clip-path="url(#177a33d9fb)"><path fill="#000000" d="M 22.742188 18.816406 L 389.261719 18.816406 L 389.261719 392.496094 L 22.742188 392.496094 Z M 22.742188 18.816406 " fill-opacity="1" fill-rule="nonzero"/></g></g><path fill="#f1faee" d="M 228.894531 322.90625 C 224.65625 303.71875 234.429688 285.769531 245.019531 277.871094 C 289.667969 244.574219 263.085938 233.941406 279.617188 200.300781 C 283.136719 193.121094 294.957031 187.792969 297.359375 185.933594 C 296.386719 186.167969 288.71875 184.902344 287.15625 183.699219 C 280.050781 178.214844 270.4375 174.789062 260.441406 183.644531 C 251.582031 191.488281 250.683594 196.179688 236.035156 209.136719 C 210.539062 165.023438 218.882812 208.078125 103.152344 206.230469 C 131.226562 232.601562 147.191406 246.675781 180.941406 251.085938 C 201.128906 253.71875 217.578125 247.488281 212.289062 264.707031 C 208.210938 277.972656 190.070312 281.058594 174.589844 294.617188 C 170.839844 303.1875 203.082031 346.835938 224.800781 349.617188 C 236.34375 351.101562 235.664062 353.507812 228.894531 322.90625 " fill-opacity="1" fill-rule="evenodd"/><g clip-path="url(#b035b025f8)"><path fill="#f1faee" d="M 272.277344 91.957031 C 345.195312 128.464844 374.898438 217.71875 338.390625 290.636719 C 324.773438 317.828125 303.816406 339.011719 279.117188 352.988281 C 299.011719 340.316406 315.84375 322.304688 327.136719 299.746094 C 360.441406 233.214844 333.347656 151.796875 266.820312 118.492188 C 200.285156 85.175781 118.863281 112.269531 85.550781 178.800781 C 53.371094 243.082031 77.582031 321.265625 139.265625 356.519531 C 66.667969 319.871094 37.160156 230.84375 73.59375 158.074219 C 110.105469 85.148438 199.351562 55.449219 272.277344 91.957031 " fill-opacity="1" fill-rule="evenodd"/></g><g clip-path="url(#53f717ff39)"><path fill="#f1faee" d="M 182.613281 214.3125 L 229.417969 214.3125 L 229.417969 244.269531 L 182.613281 244.269531 Z M 182.613281 214.3125 " fill-opacity="1" fill-rule="nonzero"/></g></svg>