<svg xmlns="http://www.w3.org/2000/svg" xmlns:xlink="http://www.w3.org/1999/xlink" width="550" zoomAndPan="magnify" viewBox="0 0 412.5 412.499996" height="550" preserveAspectRatio="xMidYMid meet" version="1.0"><defs><clipPath id="5b5177c99f"><path d="M 4.28125 5.996094 L 408 5.996094 L 408 406.003906 L 4.28125 406.003906 Z M 4.28125 5.996094 " clip-rule="nonzero"/></clipPath><clipPath id="9314c3c1a1"><path d="M 23.757812 5.996094 L 388.242188 5.996094 C 393.410156 5.996094 398.363281 8.046875 402.015625 11.699219 C 405.667969 15.351562 407.71875 20.308594 407.71875 25.472656 L 407.71875 386.527344 C 407.71875 391.695312 405.667969 396.648438 402.015625 400.300781 C 398.363281 403.953125 393.410156 406.003906 388.242188 406.003906 L 23.757812 406.003906 C 18.589844 406.003906 13.636719 403.953125 9.984375 400.300781 C 6.332031 396.648438 4.28125 391.695312 4.28125 386.527344 L 4.28125 25.472656 C 4.28125 20.308594 6.332031 15.351562 9.984375 11.699219 C 13.636719 8.046875 18.589844 5.996094 23.757812 5.996094 Z M 23.757812 5.996094 " clip-rule="nonzero"/></clipPath><clipPath id="fc1760df0c"><path d="M 39 55 L 373 55 L 373 370.976562 L 39 370.976562 Z M 39 55 " clip-rule="nonzero"/></clipPath><clipPath id="3900e5985f"><path d="M 179.699219 210.675781 L 232.300781 210.675781 L 232.300781 244.359375 L 179.699219 244.359375 Z M 179.699219 210.675781 " clip-rule="nonzero"/></clipPath></defs><g clip-path="url(#5b5177c99f)"><g clip-path="url(#9314c3c1a1)"><path fill="#000000" d="M 4.28125 5.996094 L 407.414062 5.996094 L 407.414062 406.003906 L 4.28125 406.003906 Z M 4.28125 5.996094 " fill-opacity="1" fill-rule="nonzero"/></g></g><path fill="#f1faee" d="M 231.746094 332.789062 C 226.976562 311.210938 237.96875 291.03125 249.878906 282.148438 C 300.085938 244.703125 270.195312 232.75 288.78125 194.917969 C 292.742188 186.84375 306.035156 180.851562 308.734375 178.761719 C 307.636719 179.027344 299.015625 177.605469 297.261719 176.253906 C 289.269531 170.085938 278.460938 166.234375 267.21875 176.191406 C 257.253906 185.011719 256.246094 190.285156 239.773438 204.855469 C 211.101562 155.25 220.488281 203.667969 90.347656 201.585938 C 121.917969 231.242188 139.871094 247.070312 177.820312 252.027344 C 200.523438 254.988281 219.015625 247.980469 213.070312 267.34375 C 208.488281 282.261719 188.085938 285.734375 170.679688 300.976562 C 166.460938 310.617188 202.71875 359.699219 227.140625 362.824219 C 240.121094 364.492188 239.359375 367.199219 231.746094 332.789062 " fill-opacity="1" fill-rule="evenodd"/><g clip-path="url(#fc1760df0c)"><path fill="#f1faee" d="M 280.53125 73.089844 C 362.527344 114.140625 395.925781 214.507812 354.875 296.5 C 339.558594 327.082031 315.996094 350.898438 288.21875 366.613281 C 310.59375 352.367188 329.519531 332.113281 342.21875 306.746094 C 379.671875 231.929688 349.203125 140.378906 274.394531 102.921875 C 199.574219 65.460938 108.015625 95.925781 70.554688 170.742188 C 34.367188 243.023438 61.589844 330.941406 130.957031 370.589844 C 49.320312 329.375 16.136719 229.265625 57.109375 147.433594 C 98.164062 65.429688 198.527344 32.035156 280.53125 73.089844 " fill-opacity="1" fill-rule="evenodd"/></g><g clip-path="url(#3900e5985f)"><path fill="#f1faee" d="M 179.699219 210.675781 L 232.332031 210.675781 L 232.332031 244.359375 L 179.699219 244.359375 Z M 179.699219 210.675781 " fill-opacity="1" fill-rule="nonzero"/></g></svg>